<svg width="172" height="96" viewBox="0 0 172 96" fill="none" xmlns="http://www.w3.org/2000/svg">
<g clip-path="url(#clip0_302_419)">
<path d="M3.35751 76.0724C8.82557 71.1611 14.2936 66.2421 19.7693 61.3308L16.5129 59.9809C15.9333 70.3069 15.7503 80.6406 15.9562 90.9819C16.0019 93.4299 19.8151 93.4376 19.7693 90.9819C19.5634 80.6482 19.7465 70.3069 20.3261 59.9809C20.4252 58.2345 18.2212 57.5939 17.0696 58.6311C11.6016 63.5424 6.13349 68.4614 0.657796 73.3727C-1.17252 75.0124 1.53482 77.7045 3.35751 76.0724Z" fill="#FD7F5C"/>
<path d="M23.8494 53.4681C23.8875 62.7569 24.0858 72.0458 24.4595 81.3346C24.5586 83.7827 28.3718 83.7903 28.2726 81.3346C27.9066 72.0534 27.7007 62.7645 27.6625 53.4681C27.6549 51.0124 23.8418 51.0124 23.8494 53.4681Z" fill="#FD7F5C"/>
<path d="M28.5168 67.7827C31.4605 65.1516 34.206 62.2993 36.7227 59.2564C37.3556 58.4862 37.5311 57.3041 36.7227 56.5567C36.021 55.9085 34.7017 55.7331 34.0229 56.5567C31.5063 59.5996 28.7608 62.4442 25.817 65.0829C25.0697 65.7464 25.0849 67.1115 25.817 67.7827C26.6102 68.5148 27.716 68.4919 28.5168 67.7827Z" fill="#FD7F5C"/>
<path d="M34.3279 42.3184C33.6568 52.9037 33.3441 63.5119 33.3899 74.1277C33.3975 76.5834 37.2107 76.5834 37.203 74.1277C37.1573 63.5195 37.47 52.9114 38.1411 42.3184C38.2936 39.8704 34.4804 39.878 34.3279 42.3184Z" fill="#FD7F5C"/>
<path d="M47.5443 32.5415L43.9904 35.4852C42.9304 36.3622 41.7559 37.2011 41.1077 38.4518C40.4595 39.7026 40.4213 41.1897 40.4213 42.6082C40.4213 44.1106 40.4137 45.6053 40.3985 47.1077C40.3298 53.2316 40.1087 59.3479 39.7426 65.4566C39.6435 67.1649 41.8627 67.8894 42.999 66.8065C45.5233 64.3813 48.0553 61.9561 50.5796 59.531C52.3565 57.8303 49.6568 55.1306 47.8799 56.8313C45.3556 59.2564 42.8236 61.6816 40.2993 64.1068L43.5557 65.4566C43.8913 59.7216 44.1125 53.979 44.1964 48.2288C44.2192 46.856 44.2269 45.4833 44.2345 44.1029C44.2345 42.9666 43.9599 41.4032 44.4251 40.3355C44.8293 39.4051 46.0801 38.6883 46.8351 38.0629L50.244 35.2412C51.0372 34.5853 50.9228 33.2278 50.244 32.5415C49.4585 31.7559 48.3451 31.8856 47.5443 32.5415Z" fill="#FD7F5C"/>
<path d="M46.4309 45.3689C44.4862 47.2755 42.7169 49.3422 41.0772 51.5233C40.8027 51.8894 40.7722 52.5682 40.8866 52.9952C41.001 53.4223 41.3518 53.918 41.7636 54.1315C42.2059 54.368 42.7398 54.4824 43.2355 54.3222C43.7312 54.1621 44.0591 53.8646 44.3718 53.4452C44.5243 53.2469 44.6692 53.0486 44.8218 52.8503L44.5243 53.2393C45.9428 51.409 47.4757 49.6854 49.123 48.0686C49.8399 47.367 49.878 46.0629 49.123 45.3689C48.368 44.6749 47.1859 44.6215 46.4233 45.3689H46.4309Z" fill="#FD7F5C"/>
<path d="M56.8484 25.3423C56.0629 42.6845 56.1849 60.0572 56.3451 77.4071C56.3909 82.1964 56.4442 86.9857 56.4824 91.775C56.5053 94.2307 60.3184 94.2307 60.2955 91.775C60.1506 74.4404 59.8685 57.1058 60.204 39.7712C60.2955 34.959 60.4404 30.1468 60.6616 25.3423C60.776 22.8866 56.9628 22.8942 56.8484 25.3423Z" fill="#FD7F5C"/>
<path d="M55.5062 30.04C57.1001 28.8732 58.694 27.7216 60.3794 26.6844C61.2488 26.1506 62.2021 25.3422 63.2469 25.4337C63.43 25.449 63.6206 25.4871 63.796 25.5557C64.0096 25.6396 64.2384 25.9371 63.9486 25.5405C63.7731 25.3041 63.6511 24.9685 63.7579 25.3651C63.8189 25.6015 63.8799 25.8303 63.9333 26.0667C64.4748 28.7207 64.3451 31.5195 64.3756 34.2116C64.4061 37.3613 64.4214 40.5109 64.429 43.6606C64.4366 49.9142 64.3985 56.1754 64.368 62.429C64.3527 65.4642 64.3375 68.4995 64.3299 71.5348C64.3299 74.2879 64.3451 76.98 63.8265 79.6873C63.3079 82.3946 62.2631 84.6597 60.5472 86.7569C58.7398 88.9762 56.5815 90.8751 54.4233 92.7436C53.6454 93.4147 53.7293 94.7493 54.4233 95.4433C55.1935 96.2135 56.3375 96.122 57.123 95.4433C61.2336 91.8818 65.5577 87.9161 67.1058 82.5014C67.9142 79.6568 68.143 76.6368 68.143 73.693C68.143 70.3603 68.1583 67.0353 68.1735 63.7026C68.204 57.0219 68.2498 50.3336 68.2422 43.653C68.2422 40.183 68.2193 36.7207 68.1812 33.2507C68.1507 30.3832 68.2574 27.3098 67.4948 24.5186C66.6178 21.3231 62.5606 21.041 60.0439 22.4213C57.7789 23.6568 55.674 25.2126 53.5996 26.7378C52.7684 27.3479 52.3566 28.3927 52.9133 29.346C53.3937 30.162 54.6902 30.6425 55.5215 30.0324L55.5062 30.04Z" fill="#FD7F5C"/>
<path d="M73.3899 43.9276C72.6959 55.2908 72.4442 66.6769 72.6349 78.0553C72.673 80.5034 76.4862 80.511 76.448 78.0553C76.2574 66.6769 76.509 55.2908 77.203 43.9276C77.3556 41.4795 73.5424 41.4871 73.3899 43.9276Z" fill="#FD7F5C"/>
<path d="M76.2269 45.9943C77.1115 45.0257 78.0496 44.103 79.0486 43.2412C79.5062 42.8446 79.979 42.4633 80.4595 42.1049C80.6806 41.9447 80.9018 41.7769 81.1306 41.6244C81.2602 41.5329 81.3899 41.4414 81.5272 41.3651C81.7026 41.2736 81.6797 41.2736 81.4662 41.3727L80.6273 40.8847C80.4671 40.7474 80.5586 40.45 80.5968 40.8465C80.5815 40.7092 80.6273 41.2126 80.6196 41.1439C80.6654 41.5634 80.6883 41.9828 80.7188 42.4023C80.7874 43.3022 80.8408 44.1945 80.8637 45.0944C80.9094 46.7493 80.9018 48.4347 80.612 50.0667C80.3222 51.6988 79.8799 53.1325 79.0791 54.49C78.1716 56.0305 76.8522 57.2736 75.754 58.6768C75.0829 59.531 75.0143 60.5148 75.754 61.3766C78.469 64.5186 81.1916 67.6606 83.9066 70.8027C84.5777 71.5805 85.9123 71.4967 86.6063 70.8027C87.3765 70.0324 87.285 68.8885 86.6063 68.103C83.8913 64.9609 81.1687 61.8189 78.4538 58.6768V61.3766C79.4299 60.1335 80.5205 58.9971 81.4738 57.7388C82.4271 56.4805 83.0829 55.184 83.6015 53.7426C84.6006 50.9514 84.7683 47.8703 84.6768 44.9342C84.6006 42.4557 84.9361 36.7741 80.9247 37.5672C79.3994 37.8723 78.0267 39.1611 76.8599 40.122C75.693 41.0829 74.572 42.1659 73.5348 43.2946C71.8799 45.102 74.572 47.8093 76.2345 45.9943H76.2269Z" fill="#FD7F5C"/>
<path d="M87.8494 35.4395C87.613 45.4909 87.369 55.5424 87.1326 65.5939C87.0715 68.0496 90.8847 68.0496 90.9457 65.5939C91.1821 55.5424 91.4262 45.4909 91.6626 35.4395C91.7236 32.9838 87.9104 32.9838 87.8494 35.4395Z" fill="#FD7F5C"/>
<path d="M95.2469 29.3689C94.8199 39.6339 94.5301 49.9066 94.3699 60.1868C94.3318 62.6425 98.1449 62.6425 98.1831 60.1868C98.3356 49.9142 98.633 39.6416 99.0601 29.3689C99.1592 26.9133 95.3461 26.9209 95.2469 29.3689Z" fill="#FD7F5C"/>
<path d="M95.6817 29.102C98.9533 35.9962 101.851 43.0429 104.383 50.2421C104.726 51.2107 105.687 51.8589 106.732 51.5767C107.67 51.3174 108.41 50.204 108.067 49.2278C105.428 41.7236 102.393 34.3642 98.9838 27.1726C98.5415 26.2421 97.2069 25.9981 96.3757 26.4862C95.4224 27.0429 95.247 28.164 95.6893 29.0944L95.6817 29.102Z" fill="#FD7F5C"/>
<path d="M106.13 18.0667C106.343 28.6139 106.137 39.1687 105.512 49.7007C105.367 52.1487 109.18 52.1411 109.325 49.7007C109.95 39.1687 110.156 28.6139 109.943 18.0667C109.889 15.6187 106.076 15.6111 106.13 18.0667Z" fill="#FD7F5C"/>
<path d="M112.498 12.3241C112.452 22.6501 112.406 32.9762 112.36 43.3022C112.353 45.7579 116.166 45.7579 116.174 43.3022C116.219 32.9762 116.265 22.6501 116.311 12.3241C116.318 9.86844 112.505 9.86844 112.498 12.3241Z" fill="#FD7F5C"/>
<path d="M119.979 6.54338C118.195 11.8284 116.494 17.1516 114.885 22.49C114.175 24.8465 117.851 25.8532 118.561 23.5043C120.17 18.1582 121.87 12.8427 123.655 7.55767C123.983 6.58151 123.274 5.47569 122.32 5.20877C121.276 4.91897 120.307 5.55958 119.971 6.54338H119.979Z" fill="#FD7F5C"/>
<path d="M113.809 24.8008C116.326 28.3317 118.751 31.9237 121.07 35.5844C121.603 36.4232 122.793 36.8427 123.678 36.2707C124.517 35.7293 124.936 34.5624 124.364 33.6625C122.038 30.0019 119.621 26.4099 117.104 22.8789C116.524 22.0705 115.419 21.6053 114.496 22.1926C113.695 22.7111 113.192 23.9314 113.809 24.8008Z" fill="#FD7F5C"/>
<path d="M130.763 0.0915131C126.736 -0.823644 125.844 5.1325 125.523 7.90086C125.34 9.50238 125.356 11.1115 125.562 12.7131C125.768 14.3146 125.973 15.9771 127.186 17.0829C127.827 17.6625 128.688 17.9447 129.543 17.8913C129.931 17.8684 130.404 17.7998 130.786 17.6854C130.45 17.7922 130.618 17.1897 130.709 17.7159C130.801 18.2421 131.014 18.7073 131.06 19.2488C131.129 20.0801 131.106 20.9342 131.022 21.7655C130.847 23.4738 130.381 25.1897 129.832 26.8141C129.756 27.0276 129.687 27.2336 129.581 27.4395C129.558 27.4928 129.222 27.9352 129.222 27.9657C129.222 27.8284 129.901 28.2402 129.748 28.7131C130.511 26.3718 126.828 25.3727 126.073 27.6988C125.104 30.6806 128.902 32.6559 131.243 31.1916C133.584 29.7274 134.095 26.2803 134.538 23.8932C135.026 21.2545 135.415 17.7159 133.722 15.4051C132.753 14.0858 131.373 13.735 129.809 14.0172C129.634 14.0477 129.108 14.2002 129.581 14.1773C129.931 14.1621 129.626 14.3908 129.703 14.1544C129.741 14.0248 129.543 13.5443 129.512 13.3994C129.443 13.0639 129.382 12.7207 129.337 12.3775C129.131 10.7912 129.146 9.14394 129.398 7.5653C129.52 6.77216 129.71 5.98665 129.939 5.21639C130.053 4.83508 130.168 4.43851 130.32 4.07245C130.625 3.35557 130.595 3.97331 129.756 3.78265C132.143 4.32412 133.165 0.648234 130.77 0.106766L130.763 0.0915131Z" fill="#FD7F5C"/>
<path d="M113.657 53.491C113.207 66.1964 113.214 78.9171 113.687 91.6149C113.779 94.0629 117.592 94.0706 117.5 91.6149C117.035 78.9095 117.02 66.1888 117.47 53.491C117.554 51.0353 113.741 51.0429 113.657 53.491Z" fill="#FD7F5C"/>
<path d="M113.268 57.632C115.35 55.7102 117.63 53.6969 120.208 52.469C120.681 52.2402 121.108 52.0496 121.398 51.9428C121.512 51.897 121.939 51.836 122.023 51.7369L121.26 51.348C120.62 50.7836 120.383 50.715 120.551 51.1497C120.528 51.3327 120.581 51.3098 120.597 51.4242C120.902 53.4604 121.146 55.4662 121.192 57.5253C121.291 61.7426 121.131 65.9828 121.07 70.2002C121.009 74.4175 121.054 78.7417 120.887 83.0048C120.803 85.0715 118.919 86.4061 117.531 87.7407C115.846 89.3575 114.092 90.9056 112.284 92.3775C111.483 93.0257 111.605 94.3985 112.284 95.0772C113.077 95.8704 114.183 95.7331 114.984 95.0772C116.791 93.5977 118.545 92.0572 120.231 90.4404C121.786 88.9457 123.731 87.3518 124.387 85.2164C124.73 84.103 124.715 82.9056 124.73 81.7464C124.745 80.4195 124.768 79.1001 124.784 77.7731C124.814 75.3785 124.852 72.9838 124.883 70.5815C124.951 65.7617 125.203 60.8961 124.951 56.0763C124.89 54.9399 124.784 53.8112 124.623 52.6902C124.486 51.6835 124.456 50.8141 124.135 49.8532C123.777 48.7855 122.824 47.9924 121.664 47.9695C121.054 47.9619 120.475 48.2135 119.926 48.4423C116.379 49.9066 113.359 52.3546 110.561 54.9323C108.753 56.6025 111.453 59.2946 113.26 57.632H113.268Z" fill="#FD7F5C"/>
<path d="M127.529 44.9419C127.323 56.6787 127.384 68.4233 127.72 80.1525C127.788 82.6006 131.602 82.6082 131.533 80.1525C131.197 68.4156 131.136 56.6787 131.342 44.9419C131.388 42.4862 127.575 42.4862 127.529 44.9419Z" fill="#FD7F5C"/>
<path d="M141.028 34.0591C137.626 34.3794 135.506 37.1935 135.026 40.4271C134.759 42.2269 134.827 44.0496 134.827 45.8646C134.827 47.7712 134.835 49.6778 134.843 51.5843C134.858 59.2107 134.873 66.837 134.889 74.4633C134.889 76.919 138.709 76.919 138.702 74.4633C138.686 67.5996 138.671 60.7359 138.656 53.8722C138.656 50.4557 138.625 47.0391 138.633 43.6225C138.633 42.3336 138.61 40.938 139.098 39.7102C139.411 38.9323 140.128 37.9561 141.028 37.8722C142.05 37.7731 142.934 37.0639 142.934 35.9657C142.934 35.0124 142.057 33.9599 141.028 34.0591Z" fill="#FD7F5C"/>
<path d="M140.837 37.3155C141.417 37.8951 141.462 38.7569 141.508 39.5348C141.584 40.7626 141.623 41.9828 141.676 43.2107C141.79 45.918 141.89 48.6253 141.981 51.3327C142.149 56.6864 142.263 62.04 142.317 67.4013C142.339 69.857 146.153 69.857 146.13 67.4013C146.069 61.6663 145.947 55.9314 145.756 50.204C145.665 47.367 145.55 44.5376 145.42 41.7007C145.306 39.2297 145.42 36.4919 143.529 34.6158C141.79 32.8846 139.091 35.5767 140.829 37.3155H140.837Z" fill="#FD7F5C"/>
<path d="M139.373 57.4261C141.356 55.9314 143.247 54.3298 144.978 52.5529C145.672 51.836 145.741 50.5624 144.978 49.8532C144.215 49.1439 143.026 49.0906 142.278 49.8532C140.799 51.3708 139.205 52.7741 137.535 54.0705L137.924 53.7731C137.764 53.8951 137.611 54.0172 137.451 54.1392C137.039 54.4519 136.719 54.7569 136.574 55.2755C136.452 55.7331 136.505 56.3432 136.765 56.7474C137.024 57.1516 137.42 57.51 137.901 57.6244C138.381 57.7388 138.969 57.7312 139.373 57.4337V57.4261Z" fill="#FD7F5C"/>
<path d="M148.806 31.1687C149.142 41.9905 149.478 52.8046 149.813 63.6263C149.889 66.0744 153.703 66.082 153.626 63.6263C153.291 52.8046 152.955 41.9905 152.62 31.1687C152.543 28.7207 148.73 28.7131 148.806 31.1687Z" fill="#FD7F5C"/>
<path d="M152.185 31.9771C152.902 31.2679 153.634 30.5815 154.397 29.918C154.938 29.4452 155.769 28.469 156.479 28.3241H155.464C155.274 28.3012 155.266 27.9504 155.464 28.5834C155.564 28.8961 155.64 29.2164 155.693 29.5367C155.808 30.2307 155.815 30.9399 155.83 31.6416C155.869 33.4566 155.884 35.2793 155.907 37.0944C155.914 37.979 155.922 38.8637 155.93 39.7483C155.93 40.3203 156.029 41.0295 155.777 41.5634C155.541 42.0591 154.999 42.3947 154.564 42.715C153.809 43.2641 153.054 43.8208 152.307 44.3699C151.476 44.98 151.064 46.0248 151.621 46.9781C152.101 47.7941 153.39 48.2745 154.229 47.6644C155.449 46.7722 156.738 45.9333 157.874 44.9418C159.011 43.9504 159.544 42.7378 159.697 41.2965C159.849 39.8551 159.735 38.3603 159.72 36.9037C159.705 35.4471 159.689 33.8684 159.659 32.3508C159.621 29.9485 159.705 26.143 157.188 24.8694C155.541 24.0381 154.153 25.205 152.932 26.1887C151.712 27.1725 150.584 28.1945 149.485 29.2774C147.739 31.0086 150.439 33.7007 152.185 31.9771Z" fill="#FD7F5C"/>
<path d="M151.399 48.2364C152.833 49.7235 154.221 51.2641 155.556 52.8427C156.212 53.6206 156.852 54.4137 157.485 55.2145C157.561 55.306 157.63 55.4051 157.706 55.4967C157.897 55.7407 157.554 55.2908 157.737 55.5348C157.897 55.7483 158.065 55.9619 158.225 56.1754C158.553 56.6101 158.873 57.0372 159.186 57.4795C159.773 58.2803 160.871 58.7607 161.794 58.1659C162.587 57.6549 163.106 56.4194 162.48 55.5577C159.918 52.0343 157.119 48.6711 154.092 45.5367C153.398 44.8198 152.086 44.7893 151.392 45.5367C150.698 46.2841 150.652 47.4662 151.392 48.2364H151.399Z" fill="#FD7F5C"/>
<path d="M162.053 23.9848L162.214 23.939H161.199L161.352 23.9924L160.513 23.5043C160.292 23.3137 160.551 23.7102 160.604 23.8627C160.719 24.2059 160.833 24.5491 160.948 24.8999C161.146 25.4872 161.344 26.082 161.535 26.6692C161.977 27.9962 162.419 29.3232 162.862 30.6578C163.731 33.266 164.601 35.8742 165.462 38.4824C165.79 39.4586 166.774 40.0992 167.811 39.817C168.765 39.5577 169.466 38.4519 169.146 37.4681C168.116 34.3642 167.079 31.2679 166.05 28.164C165.539 26.6387 165.035 25.1135 164.524 23.5882C164.273 22.8332 164.082 21.9867 163.647 21.3156C163.075 20.4385 162.053 20.0115 161.039 20.3089C158.69 21.0105 159.689 24.694 162.053 23.9848Z" fill="#FD7F5C"/>
<path d="M168.238 15.939C167.186 22.9171 166.133 29.8875 165.081 36.8656C164.928 37.8799 165.34 38.9171 166.416 39.2145C167.315 39.4585 168.604 38.9094 168.764 37.8799C169.817 30.9018 170.869 23.9314 171.922 16.9533C172.074 15.939 171.662 14.9018 170.587 14.6044C169.687 14.3603 168.398 14.9094 168.238 15.939Z" fill="#FD7F5C"/>
<path d="M165.859 34.9666L166.019 35.0658L165.333 34.3794C165.18 34.1659 165.31 34.2421 165.302 34.5472C165.302 34.9743 165.317 35.4013 165.325 35.8208C165.34 36.5529 165.356 37.2774 165.363 38.0095C165.394 39.5272 165.417 41.0448 165.439 42.5624C165.493 45.5977 165.531 48.633 165.577 51.6683C165.607 54.1163 169.42 54.1239 169.39 51.6683C169.344 48.2059 169.291 44.7512 169.237 41.2888C169.207 39.5882 169.176 37.8875 169.146 36.1868C169.115 34.4862 169.382 32.6482 167.773 31.6721C165.676 30.3908 163.754 33.6854 165.851 34.9666H165.859Z" fill="#FD7F5C"/>
</g>
<defs>
<clipPath id="clip0_302_419">
<rect width="171.889" height="96" fill="white" transform="translate(0.0552979)"/>
</clipPath>
</defs>
</svg>
