<svg width="282" height="206" viewBox="0 0 282 206" fill="none" xmlns="http://www.w3.org/2000/svg">
<g filter="url(#filter0_d_55_5561)">
<path d="M58.3573 131.012C63.8253 126.101 69.2934 121.182 74.7691 116.271L71.5127 114.921C70.9331 125.247 70.75 135.581 70.9559 145.922C71.0017 148.37 74.8148 148.378 74.7691 145.922C74.5632 135.588 74.7462 125.247 75.3258 114.921C75.4249 113.175 73.2209 112.534 72.0694 113.571C66.6013 118.482 61.1332 123.401 55.6576 128.313C53.8272 129.952 56.5346 132.644 58.3573 131.012Z" fill="white"/>
</g>
<g filter="url(#filter1_d_55_5561)">
<path d="M78.8491 108.408C78.8873 117.697 79.0855 126.986 79.4592 136.275C79.5584 138.723 83.3715 138.73 83.2724 136.275C82.9063 126.993 82.7004 117.705 82.6623 108.408C82.6547 105.952 78.8415 105.952 78.8491 108.408Z" fill="white"/>
</g>
<g filter="url(#filter2_d_55_5561)">
<path d="M83.5165 122.723C86.4603 120.092 89.2057 117.239 91.7224 114.196C92.3554 113.426 92.5308 112.244 91.7224 111.497C91.0208 110.849 89.7014 110.673 89.0227 111.497C86.506 114.54 83.7605 117.384 80.8168 120.023C80.0694 120.686 80.0847 122.052 80.8168 122.723C81.6099 123.455 82.7157 123.432 83.5165 122.723Z" fill="white"/>
</g>
<g filter="url(#filter3_d_55_5561)">
<path d="M89.3279 97.2584C88.6568 107.844 88.3441 118.452 88.3899 129.068C88.3975 131.523 92.2107 131.523 92.203 129.068C92.1573 118.46 92.47 107.851 93.1411 97.2584C93.2936 94.8104 89.4804 94.818 89.3279 97.2584Z" fill="white"/>
</g>
<g filter="url(#filter4_d_55_5561)">
<path d="M102.544 87.4815L98.9903 90.4252C97.9303 91.3022 96.7558 92.1411 96.1076 93.3918C95.4593 94.6426 95.4212 96.1297 95.4212 97.5482C95.4212 99.0506 95.4136 100.545 95.3983 102.048C95.3297 108.172 95.1085 114.288 94.7425 120.397C94.6433 122.105 96.8626 122.829 97.9989 121.746C100.523 119.321 103.055 116.896 105.579 114.471C107.356 112.77 104.657 110.071 102.88 111.771C100.355 114.196 97.8235 116.622 95.2992 119.047L98.5556 120.397C98.8912 114.662 99.1123 108.919 99.1962 103.169C99.2191 101.796 99.2267 100.423 99.2344 99.0429C99.2344 97.9066 98.9598 96.3432 99.425 95.2755C99.8292 94.3451 101.08 93.6283 101.835 93.0029L105.244 90.1812C106.037 89.5253 105.923 88.1678 105.244 87.4815C104.458 86.6959 103.345 86.8256 102.544 87.4815Z" fill="white"/>
</g>
<g filter="url(#filter5_d_55_5561)">
<path d="M101.431 100.309C99.4862 102.215 97.7169 104.282 96.0772 106.463C95.8027 106.829 95.7722 107.508 95.8866 107.935C96.001 108.362 96.3518 108.858 96.7636 109.072C97.2059 109.308 97.7398 109.422 98.2355 109.262C98.7312 109.102 99.0591 108.805 99.3718 108.385C99.5243 108.187 99.6692 107.989 99.8218 107.79L99.5243 108.179C100.943 106.349 102.476 104.625 104.123 103.009C104.84 102.307 104.878 101.003 104.123 100.309C103.368 99.6149 102.186 99.5615 101.423 100.309H101.431Z" fill="white"/>
</g>
<g filter="url(#filter6_d_55_5561)">
<path d="M111.848 80.2823C111.063 97.6245 111.185 114.997 111.345 132.347C111.391 137.136 111.444 141.926 111.482 146.715C111.505 149.171 115.318 149.171 115.295 146.715C115.151 129.38 114.868 112.046 115.204 94.7112C115.295 89.899 115.44 85.0868 115.661 80.2823C115.776 77.8266 111.963 77.8342 111.848 80.2823Z" fill="white"/>
</g>
<g filter="url(#filter7_d_55_5561)">
<path d="M110.506 84.98C112.1 83.8132 113.694 82.6616 115.379 81.6244C116.249 81.0906 117.202 80.2822 118.247 80.3737C118.43 80.389 118.621 80.4271 118.796 80.4958C119.009 80.5796 119.238 80.8771 118.948 80.4805C118.773 80.2441 118.651 79.9085 118.758 80.3051C118.819 80.5415 118.88 80.7703 118.933 81.0067C119.475 83.6607 119.345 86.4595 119.376 89.1516C119.406 92.3013 119.421 95.4509 119.429 98.6006C119.437 104.854 119.398 111.115 119.368 117.369C119.353 120.404 119.337 123.44 119.33 126.475C119.33 129.228 119.345 131.92 118.826 134.627C118.308 137.335 117.263 139.6 115.547 141.697C113.74 143.916 111.581 145.815 109.423 147.684C108.645 148.355 108.729 149.689 109.423 150.383C110.193 151.154 111.337 151.062 112.123 150.383C116.233 146.822 120.558 142.856 122.106 137.441C122.914 134.597 123.143 131.577 123.143 128.633C123.143 125.3 123.158 121.975 123.173 118.643C123.204 111.962 123.25 105.274 123.242 98.593C123.242 95.123 123.219 91.6607 123.181 88.1907C123.151 85.3232 123.257 82.2498 122.495 79.4586C121.618 76.2632 117.56 75.981 115.044 77.3613C112.779 78.5968 110.674 80.1526 108.6 81.6778C107.768 82.2879 107.356 83.3327 107.913 84.286C108.394 85.102 109.69 85.5825 110.521 84.9724L110.506 84.98Z" fill="white"/>
</g>
<g filter="url(#filter8_d_55_5561)">
<path d="M128.39 98.8676C127.696 110.231 127.444 121.617 127.635 132.995C127.673 135.443 131.486 135.451 131.448 132.995C131.257 121.617 131.509 110.231 132.203 98.8676C132.355 96.4195 128.542 96.4271 128.39 98.8676Z" fill="white"/>
</g>
<g filter="url(#filter9_d_55_5561)">
<path d="M131.227 100.934C132.111 99.9657 133.049 99.043 134.048 98.1812C134.506 97.7846 134.979 97.4033 135.459 97.0449C135.681 96.8847 135.902 96.7169 136.13 96.5644C136.26 96.4729 136.39 96.3814 136.527 96.3051C136.702 96.2136 136.68 96.2136 136.466 96.3127L135.627 95.8247C135.467 95.6874 135.558 95.39 135.597 95.7865C135.581 95.6492 135.627 96.1526 135.62 96.0839C135.665 96.5034 135.688 96.9228 135.719 97.3423C135.787 98.2422 135.841 99.1345 135.864 100.034C135.909 101.689 135.902 103.375 135.612 105.007C135.322 106.639 134.88 108.073 134.079 109.43C133.171 110.971 131.852 112.214 130.754 113.617C130.083 114.471 130.014 115.455 130.754 116.317C133.469 119.459 136.191 122.601 138.906 125.743C139.578 126.521 140.912 126.437 141.606 125.743C142.376 124.972 142.285 123.828 141.606 123.043C138.891 119.901 136.169 116.759 133.454 113.617V116.317C134.43 115.073 135.52 113.937 136.474 112.679C137.427 111.42 138.083 110.124 138.601 108.683C139.6 105.891 139.768 102.81 139.677 99.8742C139.6 97.3957 139.936 91.7141 135.925 92.5072C134.399 92.8123 133.027 94.1011 131.86 95.062C130.693 96.0229 129.572 97.1059 128.535 98.2346C126.88 100.042 129.572 102.749 131.234 100.934H131.227Z" fill="white"/>
</g>
<g filter="url(#filter10_d_55_5561)">
<path d="M142.849 90.3795C142.613 100.431 142.369 110.482 142.132 120.534C142.071 122.99 145.884 122.99 145.945 120.534C146.182 110.482 146.426 100.431 146.662 90.3795C146.723 87.9238 142.91 87.9238 142.849 90.3795Z" fill="white"/>
</g>
<g filter="url(#filter11_d_55_5561)">
<path d="M150.247 84.3089C149.82 94.5739 149.53 104.847 149.37 115.127C149.332 117.583 153.145 117.583 153.183 115.127C153.336 104.854 153.633 94.5816 154.06 84.3089C154.159 81.8533 150.346 81.8609 150.247 84.3089Z" fill="white"/>
</g>
<g filter="url(#filter12_d_55_5561)">
<path d="M150.682 84.042C153.953 90.9362 156.851 97.9829 159.383 105.182C159.726 106.151 160.687 106.799 161.732 106.517C162.67 106.257 163.41 105.144 163.067 104.168C160.428 96.6636 157.393 89.3042 153.984 82.1126C153.541 81.1821 152.207 80.9381 151.376 81.4262C150.422 81.9829 150.247 83.104 150.689 84.0344L150.682 84.042Z" fill="white"/>
</g>
<g filter="url(#filter13_d_55_5561)">
<path d="M161.13 73.0067C161.343 83.5539 161.137 94.1087 160.512 104.641C160.367 107.089 164.18 107.081 164.325 104.641C164.95 94.1087 165.156 83.5539 164.943 73.0067C164.889 70.5587 161.076 70.5511 161.13 73.0067Z" fill="white"/>
</g>
<g filter="url(#filter14_d_55_5561)">
<path d="M167.498 67.2641C167.452 77.5901 167.406 87.9162 167.36 98.2422C167.353 100.698 171.166 100.698 171.174 98.2422C171.219 87.9162 171.265 77.5901 171.311 67.2641C171.318 64.8084 167.505 64.8084 167.498 67.2641Z" fill="white"/>
</g>
<g filter="url(#filter15_d_55_5561)">
<path d="M174.979 61.4834C173.194 66.7684 171.494 72.0916 169.885 77.43C169.175 79.7865 172.851 80.7932 173.56 78.4443C175.17 73.0982 176.87 67.7827 178.655 62.4977C178.983 61.5215 178.274 60.4157 177.32 60.1488C176.275 59.859 175.307 60.4996 174.971 61.4834H174.979Z" fill="white"/>
</g>
<g filter="url(#filter16_d_55_5561)">
<path d="M168.809 79.7408C171.326 83.2717 173.751 86.8637 176.07 90.5244C176.603 91.3632 177.793 91.7827 178.678 91.2107C179.517 90.6693 179.936 89.5024 179.364 88.6025C177.038 84.9419 174.621 81.3499 172.104 77.8189C171.524 77.0105 170.418 76.5453 169.496 77.1326C168.695 77.6511 168.192 78.8714 168.809 79.7408Z" fill="white"/>
</g>
<g filter="url(#filter17_d_55_5561)">
<path d="M185.762 55.0315C181.736 54.1164 180.844 60.0725 180.523 62.8409C180.34 64.4424 180.355 66.0515 180.561 67.6531C180.767 69.2546 180.973 70.9171 182.186 72.0229C182.826 72.6025 183.688 72.8847 184.542 72.8313C184.931 72.8084 185.404 72.7398 185.785 72.6254C185.45 72.7322 185.618 72.1297 185.709 72.6559C185.801 73.1821 186.014 73.6473 186.06 74.1888C186.129 75.0201 186.106 75.8742 186.022 76.7055C185.846 78.4138 185.381 80.1297 184.832 81.7541C184.756 81.9676 184.687 82.1736 184.58 82.3795C184.558 82.4329 184.222 82.8752 184.222 82.9057C184.222 82.7684 184.901 83.1802 184.748 83.6531C185.511 81.3118 181.827 80.3127 181.072 82.6388C180.104 85.6206 183.902 87.5959 186.243 86.1316C188.584 84.6674 189.095 81.2203 189.538 78.8332C190.026 76.1945 190.415 72.6559 188.722 70.3451C187.753 69.0258 186.373 68.675 184.809 68.9572C184.634 68.9877 184.108 69.1402 184.58 69.1173C184.931 69.1021 184.626 69.3308 184.702 69.0944C184.741 68.9648 184.542 68.4843 184.512 68.3394C184.443 68.0039 184.382 67.6607 184.336 67.3175C184.13 65.7312 184.146 64.0839 184.397 62.5053C184.519 61.7122 184.71 60.9267 184.939 60.1564C185.053 59.7751 185.168 59.3785 185.32 59.0125C185.625 58.2956 185.595 58.9133 184.756 58.7227C187.143 59.2641 188.165 55.5882 185.77 55.0468L185.762 55.0315Z" fill="white"/>
</g>
<g filter="url(#filter18_d_55_5561)">
<path d="M168.657 108.431C168.207 121.136 168.215 133.857 168.687 146.555C168.779 149.003 172.592 149.011 172.501 146.555C172.035 133.849 172.02 121.129 172.47 108.431C172.554 105.975 168.741 105.983 168.657 108.431Z" fill="white"/>
</g>
<g filter="url(#filter19_d_55_5561)">
<path d="M168.268 112.572C170.35 110.65 172.63 108.637 175.208 107.409C175.681 107.18 176.108 106.99 176.398 106.883C176.512 106.837 176.939 106.776 177.023 106.677L176.26 106.288C175.62 105.724 175.383 105.655 175.551 106.09C175.528 106.273 175.581 106.25 175.597 106.364C175.902 108.4 176.146 110.406 176.192 112.465C176.291 116.683 176.131 120.923 176.07 125.14C176.009 129.358 176.054 133.682 175.887 137.945C175.803 140.012 173.919 141.346 172.531 142.681C170.846 144.297 169.092 145.846 167.284 147.318C166.483 147.966 166.605 149.338 167.284 150.017C168.077 150.81 169.183 150.673 169.984 150.017C171.791 148.538 173.545 146.997 175.231 145.38C176.786 143.886 178.731 142.292 179.387 140.156C179.73 139.043 179.715 137.846 179.73 136.686C179.745 135.359 179.768 134.04 179.784 132.713C179.814 130.318 179.852 127.924 179.883 125.522C179.951 120.702 180.203 115.836 179.951 111.016C179.89 109.88 179.784 108.751 179.623 107.63C179.486 106.624 179.456 105.754 179.135 104.793C178.777 103.726 177.824 102.932 176.664 102.91C176.054 102.902 175.475 103.154 174.926 103.382C171.379 104.847 168.359 107.295 165.561 109.872C163.753 111.542 166.453 114.235 168.26 112.572H168.268Z" fill="white"/>
</g>
<g filter="url(#filter20_d_55_5561)">
<path d="M182.529 99.8819C182.323 111.619 182.384 123.363 182.72 135.093C182.788 137.541 186.602 137.548 186.533 135.093C186.197 123.356 186.136 111.619 186.342 99.8819C186.388 97.4262 182.575 97.4262 182.529 99.8819Z" fill="white"/>
</g>
<g filter="url(#filter21_d_55_5561)">
<path d="M196.028 88.9991C192.626 89.3194 190.506 92.1335 190.026 95.3671C189.759 97.1669 189.827 98.9896 189.827 100.805C189.827 102.711 189.835 104.618 189.843 106.524C189.858 114.151 189.873 121.777 189.889 129.403C189.889 131.859 193.709 131.859 193.702 129.403C193.686 122.54 193.671 115.676 193.656 108.812C193.656 105.396 193.625 101.979 193.633 98.5625C193.633 97.2736 193.61 95.878 194.098 94.6502C194.411 93.8723 195.128 92.8961 196.028 92.8122C197.05 92.7131 197.934 92.0039 197.934 90.9057C197.934 89.9524 197.057 88.8999 196.028 88.9991Z" fill="white"/>
</g>
<g filter="url(#filter22_d_55_5561)">
<path d="M195.837 92.2555C196.416 92.8351 196.462 93.6969 196.508 94.4748C196.584 95.7026 196.622 96.9228 196.676 98.1507C196.79 100.858 196.889 103.565 196.981 106.273C197.149 111.626 197.263 116.98 197.316 122.341C197.339 124.797 201.152 124.797 201.129 122.341C201.068 116.606 200.946 110.871 200.756 105.144C200.664 102.307 200.55 99.4776 200.42 96.6407C200.306 94.1697 200.42 91.4319 198.529 89.5558C196.79 87.8246 194.09 90.5167 195.829 92.2555H195.837Z" fill="white"/>
</g>
<g filter="url(#filter23_d_55_5561)">
<path d="M194.373 112.366C196.356 110.871 198.247 109.27 199.978 107.493C200.672 106.776 200.741 105.502 199.978 104.793C199.215 104.084 198.026 104.031 197.278 104.793C195.799 106.311 194.205 107.714 192.535 109.011L192.924 108.713C192.764 108.835 192.611 108.957 192.451 109.079C192.039 109.392 191.719 109.697 191.574 110.216C191.452 110.673 191.505 111.283 191.765 111.687C192.024 112.092 192.42 112.45 192.901 112.564C193.381 112.679 193.969 112.671 194.373 112.374V112.366Z" fill="white"/>
</g>
<g filter="url(#filter24_d_55_5561)">
<path d="M203.806 86.1087C204.142 96.9305 204.477 107.745 204.813 118.566C204.889 121.014 208.702 121.022 208.626 118.566C208.291 107.745 207.955 96.9305 207.619 86.1087C207.543 83.6607 203.73 83.6531 203.806 86.1087Z" fill="white"/>
</g>
<g filter="url(#filter25_d_55_5561)">
<path d="M207.185 86.9171C207.902 86.2079 208.634 85.5215 209.396 84.858C209.938 84.3852 210.769 83.409 211.478 83.2641H210.464C210.273 83.2412 210.266 82.8904 210.464 83.5234C210.563 83.8361 210.64 84.1564 210.693 84.4767C210.807 85.1707 210.815 85.8799 210.83 86.5816C210.868 88.3966 210.884 90.2193 210.906 92.0344C210.914 92.919 210.922 93.8037 210.929 94.6883C210.929 95.2603 211.028 95.9695 210.777 96.5034C210.54 96.9991 209.999 97.3347 209.564 97.655C208.809 98.2041 208.054 98.7608 207.307 99.3099C206.476 99.92 206.064 100.965 206.62 101.918C207.101 102.734 208.39 103.215 209.229 102.604C210.449 101.712 211.738 100.873 212.874 99.8818C214.01 98.8904 214.544 97.6778 214.697 96.2365C214.849 94.7951 214.735 93.3003 214.72 91.8437C214.704 90.3871 214.689 88.8084 214.659 87.2908C214.62 84.8885 214.704 81.083 212.188 79.8094C210.54 78.9781 209.152 80.145 207.932 81.1287C206.712 82.1125 205.583 83.1345 204.485 84.2174C202.739 85.9486 205.438 88.6407 207.185 86.9171Z" fill="white"/>
</g>
<g filter="url(#filter26_d_55_5561)">
<path d="M206.399 103.176C207.833 104.664 209.221 106.204 210.556 107.783C211.212 108.561 211.852 109.354 212.485 110.154C212.561 110.246 212.63 110.345 212.706 110.437C212.897 110.681 212.554 110.231 212.737 110.475C212.897 110.688 213.065 110.902 213.225 111.115C213.553 111.55 213.873 111.977 214.186 112.42C214.773 113.22 215.871 113.701 216.794 113.106C217.587 112.595 218.106 111.359 217.48 110.498C214.918 106.974 212.119 103.611 209.092 100.477C208.398 99.7598 207.086 99.7293 206.392 100.477C205.698 101.224 205.652 102.406 206.392 103.176H206.399Z" fill="white"/>
</g>
<g filter="url(#filter27_d_55_5561)">
<path d="M217.053 78.9248L217.214 78.879H216.199L216.352 78.9324L215.513 78.4443C215.292 78.2537 215.551 78.6502 215.604 78.8027C215.719 79.1459 215.833 79.4891 215.948 79.8399C216.146 80.4272 216.344 81.022 216.535 81.6092C216.977 82.9362 217.419 84.2632 217.862 85.5978C218.731 88.206 219.601 90.8142 220.462 93.4224C220.79 94.3986 221.774 95.0392 222.811 94.757C223.765 94.4977 224.466 93.3919 224.146 92.4081C223.116 89.3042 222.079 86.2079 221.05 83.104C220.539 81.5787 220.035 80.0535 219.524 78.5282C219.273 77.7732 219.082 76.9267 218.647 76.2556C218.075 75.3785 217.053 74.9515 216.039 75.2489C213.69 75.9505 214.689 79.634 217.053 78.9248Z" fill="white"/>
</g>
<g filter="url(#filter28_d_55_5561)">
<path d="M223.238 70.879C222.186 77.8571 221.133 84.8275 220.081 91.8056C219.928 92.8199 220.34 93.8571 221.416 94.1545C222.315 94.3985 223.604 93.8494 223.764 92.8199C224.817 85.8418 225.869 78.8714 226.922 71.8933C227.074 70.879 226.662 69.8418 225.587 69.5444C224.687 69.3003 223.398 69.8494 223.238 70.879Z" fill="white"/>
</g>
<g filter="url(#filter29_d_55_5561)">
<path d="M220.859 89.9066L221.019 90.0058L220.333 89.3194C220.18 89.1059 220.31 89.1821 220.302 89.4872C220.302 89.9143 220.317 90.3413 220.325 90.7608C220.34 91.4929 220.356 92.2174 220.363 92.9495C220.394 94.4672 220.417 95.9848 220.439 97.5024C220.493 100.538 220.531 103.573 220.577 106.608C220.607 109.056 224.42 109.064 224.39 106.608C224.344 103.146 224.291 99.6912 224.237 96.2288C224.207 94.5282 224.176 92.8275 224.146 91.1268C224.115 89.4262 224.382 87.5882 222.773 86.6121C220.676 85.3309 218.754 88.6254 220.851 89.9066H220.859Z" fill="white"/>
</g>
<defs>
<filter id="filter0_d_55_5561" x="0.139145" y="58.1624" width="130.099" height="144.508" filterUnits="userSpaceOnUse" color-interpolation-filters="sRGB">
<feFlood flood-opacity="0" result="BackgroundImageFix"/>
<feColorMatrix in="SourceAlpha" type="matrix" values="0 0 0 0 0 0 0 0 0 0 0 0 0 0 0 0 0 0 127 0" result="hardAlpha"/>
<feOffset/>
<feGaussianBlur stdDeviation="27.4547"/>
<feComposite in2="hardAlpha" operator="out"/>
<feColorMatrix type="matrix" values="0 0 0 0 0.992157 0 0 0 0 0.498039 0 0 0 0 0.360784 0 0 0 1 0"/>
<feBlend mode="normal" in2="BackgroundImageFix" result="effect1_dropShadow_55_5561"/>
<feBlend mode="normal" in="SourceGraphic" in2="effect1_dropShadow_55_5561" result="shape"/>
</filter>
<filter id="filter1_d_55_5561" x="23.9397" y="51.6569" width="114.244" height="141.366" filterUnits="userSpaceOnUse" color-interpolation-filters="sRGB">
<feFlood flood-opacity="0" result="BackgroundImageFix"/>
<feColorMatrix in="SourceAlpha" type="matrix" values="0 0 0 0 0 0 0 0 0 0 0 0 0 0 0 0 0 0 127 0" result="hardAlpha"/>
<feOffset/>
<feGaussianBlur stdDeviation="27.4547"/>
<feComposite in2="hardAlpha" operator="out"/>
<feColorMatrix type="matrix" values="0 0 0 0 0.992157 0 0 0 0 0.498039 0 0 0 0 0.360784 0 0 0 1 0"/>
<feBlend mode="normal" in2="BackgroundImageFix" result="effect1_dropShadow_55_5561"/>
<feBlend mode="normal" in="SourceGraphic" in2="effect1_dropShadow_55_5561" result="shape"/>
</filter>
<filter id="filter2_d_55_5561" x="25.3525" y="56.0334" width="121.822" height="122.139" filterUnits="userSpaceOnUse" color-interpolation-filters="sRGB">
<feFlood flood-opacity="0" result="BackgroundImageFix"/>
<feColorMatrix in="SourceAlpha" type="matrix" values="0 0 0 0 0 0 0 0 0 0 0 0 0 0 0 0 0 0 127 0" result="hardAlpha"/>
<feOffset/>
<feGaussianBlur stdDeviation="27.4547"/>
<feComposite in2="hardAlpha" operator="out"/>
<feColorMatrix type="matrix" values="0 0 0 0 0.992157 0 0 0 0 0.498039 0 0 0 0 0.360784 0 0 0 1 0"/>
<feBlend mode="normal" in2="BackgroundImageFix" result="effect1_dropShadow_55_5561"/>
<feBlend mode="normal" in="SourceGraphic" in2="effect1_dropShadow_55_5561" result="shape"/>
</filter>
<filter id="filter3_d_55_5561" x="33.4761" y="40.5158" width="114.579" height="145.303" filterUnits="userSpaceOnUse" color-interpolation-filters="sRGB">
<feFlood flood-opacity="0" result="BackgroundImageFix"/>
<feColorMatrix in="SourceAlpha" type="matrix" values="0 0 0 0 0 0 0 0 0 0 0 0 0 0 0 0 0 0 127 0" result="hardAlpha"/>
<feOffset/>
<feGaussianBlur stdDeviation="27.4547"/>
<feComposite in2="hardAlpha" operator="out"/>
<feColorMatrix type="matrix" values="0 0 0 0 0.992157 0 0 0 0 0.498039 0 0 0 0 0.360784 0 0 0 1 0"/>
<feBlend mode="normal" in2="BackgroundImageFix" result="effect1_dropShadow_55_5561"/>
<feBlend mode="normal" in="SourceGraphic" in2="effect1_dropShadow_55_5561" result="shape"/>
</filter>
<filter id="filter4_d_55_5561" x="39.8298" y="32.0304" width="121.241" height="145.137" filterUnits="userSpaceOnUse" color-interpolation-filters="sRGB">
<feFlood flood-opacity="0" result="BackgroundImageFix"/>
<feColorMatrix in="SourceAlpha" type="matrix" values="0 0 0 0 0 0 0 0 0 0 0 0 0 0 0 0 0 0 127 0" result="hardAlpha"/>
<feOffset/>
<feGaussianBlur stdDeviation="27.4547"/>
<feComposite in2="hardAlpha" operator="out"/>
<feColorMatrix type="matrix" values="0 0 0 0 0.992157 0 0 0 0 0.498039 0 0 0 0 0.360784 0 0 0 1 0"/>
<feBlend mode="normal" in2="BackgroundImageFix" result="effect1_dropShadow_55_5561"/>
<feBlend mode="normal" in="SourceGraphic" in2="effect1_dropShadow_55_5561" result="shape"/>
</filter>
<filter id="filter5_d_55_5561" x="40.9145" y="44.8588" width="118.67" height="119.387" filterUnits="userSpaceOnUse" color-interpolation-filters="sRGB">
<feFlood flood-opacity="0" result="BackgroundImageFix"/>
<feColorMatrix in="SourceAlpha" type="matrix" values="0 0 0 0 0 0 0 0 0 0 0 0 0 0 0 0 0 0 127 0" result="hardAlpha"/>
<feOffset/>
<feGaussianBlur stdDeviation="27.4547"/>
<feComposite in2="hardAlpha" operator="out"/>
<feColorMatrix type="matrix" values="0 0 0 0 0.992157 0 0 0 0 0.498039 0 0 0 0 0.360784 0 0 0 1 0"/>
<feBlend mode="normal" in2="BackgroundImageFix" result="effect1_dropShadow_55_5561"/>
<feBlend mode="normal" in="SourceGraphic" in2="effect1_dropShadow_55_5561" result="shape"/>
</filter>
<filter id="filter6_d_55_5561" x="56.3171" y="23.5339" width="114.256" height="179.932" filterUnits="userSpaceOnUse" color-interpolation-filters="sRGB">
<feFlood flood-opacity="0" result="BackgroundImageFix"/>
<feColorMatrix in="SourceAlpha" type="matrix" values="0 0 0 0 0 0 0 0 0 0 0 0 0 0 0 0 0 0 127 0" result="hardAlpha"/>
<feOffset/>
<feGaussianBlur stdDeviation="27.4547"/>
<feComposite in2="hardAlpha" operator="out"/>
<feColorMatrix type="matrix" values="0 0 0 0 0.992157 0 0 0 0 0.498039 0 0 0 0 0.360784 0 0 0 1 0"/>
<feBlend mode="normal" in2="BackgroundImageFix" result="effect1_dropShadow_55_5561"/>
<feBlend mode="normal" in="SourceGraphic" in2="effect1_dropShadow_55_5561" result="shape"/>
</filter>
<filter id="filter7_d_55_5561" x="52.7488" y="21.6657" width="125.404" height="184.171" filterUnits="userSpaceOnUse" color-interpolation-filters="sRGB">
<feFlood flood-opacity="0" result="BackgroundImageFix"/>
<feColorMatrix in="SourceAlpha" type="matrix" values="0 0 0 0 0 0 0 0 0 0 0 0 0 0 0 0 0 0 127 0" result="hardAlpha"/>
<feOffset/>
<feGaussianBlur stdDeviation="27.4547"/>
<feComposite in2="hardAlpha" operator="out"/>
<feColorMatrix type="matrix" values="0 0 0 0 0.992157 0 0 0 0 0.498039 0 0 0 0 0.360784 0 0 0 1 0"/>
<feBlend mode="normal" in2="BackgroundImageFix" result="effect1_dropShadow_55_5561"/>
<feBlend mode="normal" in="SourceGraphic" in2="effect1_dropShadow_55_5561" result="shape"/>
</filter>
<filter id="filter8_d_55_5561" x="72.6636" y="42.125" width="114.453" height="147.619" filterUnits="userSpaceOnUse" color-interpolation-filters="sRGB">
<feFlood flood-opacity="0" result="BackgroundImageFix"/>
<feColorMatrix in="SourceAlpha" type="matrix" values="0 0 0 0 0 0 0 0 0 0 0 0 0 0 0 0 0 0 127 0" result="hardAlpha"/>
<feOffset/>
<feGaussianBlur stdDeviation="27.4547"/>
<feComposite in2="hardAlpha" operator="out"/>
<feColorMatrix type="matrix" values="0 0 0 0 0.992157 0 0 0 0 0.498039 0 0 0 0 0.360784 0 0 0 1 0"/>
<feBlend mode="normal" in2="BackgroundImageFix" result="effect1_dropShadow_55_5561"/>
<feBlend mode="normal" in="SourceGraphic" in2="effect1_dropShadow_55_5561" result="shape"/>
</filter>
<filter id="filter9_d_55_5561" x="73.1069" y="37.5225" width="123.953" height="143.682" filterUnits="userSpaceOnUse" color-interpolation-filters="sRGB">
<feFlood flood-opacity="0" result="BackgroundImageFix"/>
<feColorMatrix in="SourceAlpha" type="matrix" values="0 0 0 0 0 0 0 0 0 0 0 0 0 0 0 0 0 0 127 0" result="hardAlpha"/>
<feOffset/>
<feGaussianBlur stdDeviation="27.4547"/>
<feComposite in2="hardAlpha" operator="out"/>
<feColorMatrix type="matrix" values="0 0 0 0 0.992157 0 0 0 0 0.498039 0 0 0 0 0.360784 0 0 0 1 0"/>
<feBlend mode="normal" in2="BackgroundImageFix" result="effect1_dropShadow_55_5561"/>
<feBlend mode="normal" in="SourceGraphic" in2="effect1_dropShadow_55_5561" result="shape"/>
</filter>
<filter id="filter10_d_55_5561" x="87.2222" y="33.6283" width="114.35" height="143.657" filterUnits="userSpaceOnUse" color-interpolation-filters="sRGB">
<feFlood flood-opacity="0" result="BackgroundImageFix"/>
<feColorMatrix in="SourceAlpha" type="matrix" values="0 0 0 0 0 0 0 0 0 0 0 0 0 0 0 0 0 0 127 0" result="hardAlpha"/>
<feOffset/>
<feGaussianBlur stdDeviation="27.4547"/>
<feComposite in2="hardAlpha" operator="out"/>
<feColorMatrix type="matrix" values="0 0 0 0 0.992157 0 0 0 0 0.498039 0 0 0 0 0.360784 0 0 0 1 0"/>
<feBlend mode="normal" in2="BackgroundImageFix" result="effect1_dropShadow_55_5561"/>
<feBlend mode="normal" in="SourceGraphic" in2="effect1_dropShadow_55_5561" result="shape"/>
</filter>
<filter id="filter11_d_55_5561" x="94.4602" y="27.5606" width="114.511" height="144.317" filterUnits="userSpaceOnUse" color-interpolation-filters="sRGB">
<feFlood flood-opacity="0" result="BackgroundImageFix"/>
<feColorMatrix in="SourceAlpha" type="matrix" values="0 0 0 0 0 0 0 0 0 0 0 0 0 0 0 0 0 0 127 0" result="hardAlpha"/>
<feOffset/>
<feGaussianBlur stdDeviation="27.4547"/>
<feComposite in2="hardAlpha" operator="out"/>
<feColorMatrix type="matrix" values="0 0 0 0 0.992157 0 0 0 0 0.498039 0 0 0 0 0.360784 0 0 0 1 0"/>
<feBlend mode="normal" in2="BackgroundImageFix" result="effect1_dropShadow_55_5561"/>
<feBlend mode="normal" in="SourceGraphic" in2="effect1_dropShadow_55_5561" result="shape"/>
</filter>
<filter id="filter12_d_55_5561" x="95.5491" y="26.271" width="122.512" height="135.222" filterUnits="userSpaceOnUse" color-interpolation-filters="sRGB">
<feFlood flood-opacity="0" result="BackgroundImageFix"/>
<feColorMatrix in="SourceAlpha" type="matrix" values="0 0 0 0 0 0 0 0 0 0 0 0 0 0 0 0 0 0 127 0" result="hardAlpha"/>
<feOffset/>
<feGaussianBlur stdDeviation="27.4547"/>
<feComposite in2="hardAlpha" operator="out"/>
<feColorMatrix type="matrix" values="0 0 0 0 0.992157 0 0 0 0 0.498039 0 0 0 0 0.360784 0 0 0 1 0"/>
<feBlend mode="normal" in2="BackgroundImageFix" result="effect1_dropShadow_55_5561"/>
<feBlend mode="normal" in="SourceGraphic" in2="effect1_dropShadow_55_5561" result="shape"/>
</filter>
<filter id="filter13_d_55_5561" x="105.598" y="16.2584" width="114.335" height="145.125" filterUnits="userSpaceOnUse" color-interpolation-filters="sRGB">
<feFlood flood-opacity="0" result="BackgroundImageFix"/>
<feColorMatrix in="SourceAlpha" type="matrix" values="0 0 0 0 0 0 0 0 0 0 0 0 0 0 0 0 0 0 127 0" result="hardAlpha"/>
<feOffset/>
<feGaussianBlur stdDeviation="27.4547"/>
<feComposite in2="hardAlpha" operator="out"/>
<feColorMatrix type="matrix" values="0 0 0 0 0.992157 0 0 0 0 0.498039 0 0 0 0 0.360784 0 0 0 1 0"/>
<feBlend mode="normal" in2="BackgroundImageFix" result="effect1_dropShadow_55_5561"/>
<feBlend mode="normal" in="SourceGraphic" in2="effect1_dropShadow_55_5561" result="shape"/>
</filter>
<filter id="filter14_d_55_5561" x="112.451" y="10.5129" width="113.769" height="144.48" filterUnits="userSpaceOnUse" color-interpolation-filters="sRGB">
<feFlood flood-opacity="0" result="BackgroundImageFix"/>
<feColorMatrix in="SourceAlpha" type="matrix" values="0 0 0 0 0 0 0 0 0 0 0 0 0 0 0 0 0 0 127 0" result="hardAlpha"/>
<feOffset/>
<feGaussianBlur stdDeviation="27.4547"/>
<feComposite in2="hardAlpha" operator="out"/>
<feColorMatrix type="matrix" values="0 0 0 0 0.992157 0 0 0 0 0.498039 0 0 0 0 0.360784 0 0 0 1 0"/>
<feBlend mode="normal" in2="BackgroundImageFix" result="effect1_dropShadow_55_5561"/>
<feBlend mode="normal" in="SourceGraphic" in2="effect1_dropShadow_55_5561" result="shape"/>
</filter>
<filter id="filter15_d_55_5561" x="114.885" y="5.16924" width="118.761" height="129.521" filterUnits="userSpaceOnUse" color-interpolation-filters="sRGB">
<feFlood flood-opacity="0" result="BackgroundImageFix"/>
<feColorMatrix in="SourceAlpha" type="matrix" values="0 0 0 0 0 0 0 0 0 0 0 0 0 0 0 0 0 0 127 0" result="hardAlpha"/>
<feOffset/>
<feGaussianBlur stdDeviation="27.4547"/>
<feComposite in2="hardAlpha" operator="out"/>
<feColorMatrix type="matrix" values="0 0 0 0 0.992157 0 0 0 0 0.498039 0 0 0 0 0.360784 0 0 0 1 0"/>
<feBlend mode="normal" in2="BackgroundImageFix" result="effect1_dropShadow_55_5561"/>
<feBlend mode="normal" in="SourceGraphic" in2="effect1_dropShadow_55_5561" result="shape"/>
</filter>
<filter id="filter16_d_55_5561" x="113.624" y="21.9593" width="120.913" height="124.424" filterUnits="userSpaceOnUse" color-interpolation-filters="sRGB">
<feFlood flood-opacity="0" result="BackgroundImageFix"/>
<feColorMatrix in="SourceAlpha" type="matrix" values="0 0 0 0 0 0 0 0 0 0 0 0 0 0 0 0 0 0 127 0" result="hardAlpha"/>
<feOffset/>
<feGaussianBlur stdDeviation="27.4547"/>
<feComposite in2="hardAlpha" operator="out"/>
<feColorMatrix type="matrix" values="0 0 0 0 0.992157 0 0 0 0 0.498039 0 0 0 0 0.360784 0 0 0 1 0"/>
<feBlend mode="normal" in2="BackgroundImageFix" result="effect1_dropShadow_55_5561"/>
<feBlend mode="normal" in="SourceGraphic" in2="effect1_dropShadow_55_5561" result="shape"/>
</filter>
<filter id="filter17_d_55_5561" x="125.486" y="0.0274506" width="119.379" height="141.508" filterUnits="userSpaceOnUse" color-interpolation-filters="sRGB">
<feFlood flood-opacity="0" result="BackgroundImageFix"/>
<feColorMatrix in="SourceAlpha" type="matrix" values="0 0 0 0 0 0 0 0 0 0 0 0 0 0 0 0 0 0 127 0" result="hardAlpha"/>
<feOffset/>
<feGaussianBlur stdDeviation="27.4547"/>
<feComposite in2="hardAlpha" operator="out"/>
<feColorMatrix type="matrix" values="0 0 0 0 0.992157 0 0 0 0 0.498039 0 0 0 0 0.360784 0 0 0 1 0"/>
<feBlend mode="normal" in2="BackgroundImageFix" result="effect1_dropShadow_55_5561"/>
<feBlend mode="normal" in="SourceGraphic" in2="effect1_dropShadow_55_5561" result="shape"/>
</filter>
<filter id="filter18_d_55_5561" x="113.416" y="51.6826" width="113.995" height="151.621" filterUnits="userSpaceOnUse" color-interpolation-filters="sRGB">
<feFlood flood-opacity="0" result="BackgroundImageFix"/>
<feColorMatrix in="SourceAlpha" type="matrix" values="0 0 0 0 0 0 0 0 0 0 0 0 0 0 0 0 0 0 127 0" result="hardAlpha"/>
<feOffset/>
<feGaussianBlur stdDeviation="27.4547"/>
<feComposite in2="hardAlpha" operator="out"/>
<feColorMatrix type="matrix" values="0 0 0 0 0.992157 0 0 0 0 0.498039 0 0 0 0 0.360784 0 0 0 1 0"/>
<feBlend mode="normal" in2="BackgroundImageFix" result="effect1_dropShadow_55_5561"/>
<feBlend mode="normal" in="SourceGraphic" in2="effect1_dropShadow_55_5561" result="shape"/>
</filter>
<filter id="filter19_d_55_5561" x="110.053" y="47.9999" width="124.917" height="157.471" filterUnits="userSpaceOnUse" color-interpolation-filters="sRGB">
<feFlood flood-opacity="0" result="BackgroundImageFix"/>
<feColorMatrix in="SourceAlpha" type="matrix" values="0 0 0 0 0 0 0 0 0 0 0 0 0 0 0 0 0 0 127 0" result="hardAlpha"/>
<feOffset/>
<feGaussianBlur stdDeviation="27.4547"/>
<feComposite in2="hardAlpha" operator="out"/>
<feColorMatrix type="matrix" values="0 0 0 0 0.992157 0 0 0 0 0.498039 0 0 0 0 0.360784 0 0 0 1 0"/>
<feBlend mode="normal" in2="BackgroundImageFix" result="effect1_dropShadow_55_5561"/>
<feBlend mode="normal" in="SourceGraphic" in2="effect1_dropShadow_55_5561" result="shape"/>
</filter>
<filter id="filter20_d_55_5561" x="127.501" y="43.1307" width="113.942" height="148.71" filterUnits="userSpaceOnUse" color-interpolation-filters="sRGB">
<feFlood flood-opacity="0" result="BackgroundImageFix"/>
<feColorMatrix in="SourceAlpha" type="matrix" values="0 0 0 0 0 0 0 0 0 0 0 0 0 0 0 0 0 0 127 0" result="hardAlpha"/>
<feOffset/>
<feGaussianBlur stdDeviation="27.4547"/>
<feComposite in2="hardAlpha" operator="out"/>
<feColorMatrix type="matrix" values="0 0 0 0 0.992157 0 0 0 0 0.498039 0 0 0 0 0.360784 0 0 0 1 0"/>
<feBlend mode="normal" in2="BackgroundImageFix" result="effect1_dropShadow_55_5561"/>
<feBlend mode="normal" in="SourceGraphic" in2="effect1_dropShadow_55_5561" result="shape"/>
</filter>
<filter id="filter21_d_55_5561" x="134.91" y="34.0831" width="117.934" height="152.071" filterUnits="userSpaceOnUse" color-interpolation-filters="sRGB">
<feFlood flood-opacity="0" result="BackgroundImageFix"/>
<feColorMatrix in="SourceAlpha" type="matrix" values="0 0 0 0 0 0 0 0 0 0 0 0 0 0 0 0 0 0 127 0" result="hardAlpha"/>
<feOffset/>
<feGaussianBlur stdDeviation="27.4547"/>
<feComposite in2="hardAlpha" operator="out"/>
<feColorMatrix type="matrix" values="0 0 0 0 0.992157 0 0 0 0 0.498039 0 0 0 0 0.360784 0 0 0 1 0"/>
<feBlend mode="normal" in2="BackgroundImageFix" result="effect1_dropShadow_55_5561"/>
<feBlend mode="normal" in="SourceGraphic" in2="effect1_dropShadow_55_5561" result="shape"/>
</filter>
<filter id="filter22_d_55_5561" x="140.359" y="34.0883" width="115.68" height="145.004" filterUnits="userSpaceOnUse" color-interpolation-filters="sRGB">
<feFlood flood-opacity="0" result="BackgroundImageFix"/>
<feColorMatrix in="SourceAlpha" type="matrix" values="0 0 0 0 0 0 0 0 0 0 0 0 0 0 0 0 0 0 127 0" result="hardAlpha"/>
<feOffset/>
<feGaussianBlur stdDeviation="27.4547"/>
<feComposite in2="hardAlpha" operator="out"/>
<feColorMatrix type="matrix" values="0 0 0 0 0.992157 0 0 0 0 0.498039 0 0 0 0 0.360784 0 0 0 1 0"/>
<feBlend mode="normal" in2="BackgroundImageFix" result="effect1_dropShadow_55_5561"/>
<feBlend mode="normal" in="SourceGraphic" in2="effect1_dropShadow_55_5561" result="shape"/>
</filter>
<filter id="filter23_d_55_5561" x="136.602" y="49.3316" width="118.832" height="118.211" filterUnits="userSpaceOnUse" color-interpolation-filters="sRGB">
<feFlood flood-opacity="0" result="BackgroundImageFix"/>
<feColorMatrix in="SourceAlpha" type="matrix" values="0 0 0 0 0 0 0 0 0 0 0 0 0 0 0 0 0 0 127 0" result="hardAlpha"/>
<feOffset/>
<feGaussianBlur stdDeviation="27.4547"/>
<feComposite in2="hardAlpha" operator="out"/>
<feColorMatrix type="matrix" values="0 0 0 0 0.992157 0 0 0 0 0.498039 0 0 0 0 0.360784 0 0 0 1 0"/>
<feBlend mode="normal" in2="BackgroundImageFix" result="effect1_dropShadow_55_5561"/>
<feBlend mode="normal" in="SourceGraphic" in2="effect1_dropShadow_55_5561" result="shape"/>
</filter>
<filter id="filter24_d_55_5561" x="148.896" y="29.3604" width="114.641" height="145.954" filterUnits="userSpaceOnUse" color-interpolation-filters="sRGB">
<feFlood flood-opacity="0" result="BackgroundImageFix"/>
<feColorMatrix in="SourceAlpha" type="matrix" values="0 0 0 0 0 0 0 0 0 0 0 0 0 0 0 0 0 0 127 0" result="hardAlpha"/>
<feOffset/>
<feGaussianBlur stdDeviation="27.4547"/>
<feComposite in2="hardAlpha" operator="out"/>
<feColorMatrix type="matrix" values="0 0 0 0 0.992157 0 0 0 0 0.498039 0 0 0 0 0.360784 0 0 0 1 0"/>
<feBlend mode="normal" in2="BackgroundImageFix" result="effect1_dropShadow_55_5561"/>
<feBlend mode="normal" in="SourceGraphic" in2="effect1_dropShadow_55_5561" result="shape"/>
</filter>
<filter id="filter25_d_55_5561" x="149.01" y="24.6166" width="120.674" height="133.173" filterUnits="userSpaceOnUse" color-interpolation-filters="sRGB">
<feFlood flood-opacity="0" result="BackgroundImageFix"/>
<feColorMatrix in="SourceAlpha" type="matrix" values="0 0 0 0 0 0 0 0 0 0 0 0 0 0 0 0 0 0 127 0" result="hardAlpha"/>
<feOffset/>
<feGaussianBlur stdDeviation="27.4547"/>
<feComposite in2="hardAlpha" operator="out"/>
<feColorMatrix type="matrix" values="0 0 0 0 0.992157 0 0 0 0 0.498039 0 0 0 0 0.360784 0 0 0 1 0"/>
<feBlend mode="normal" in2="BackgroundImageFix" result="effect1_dropShadow_55_5561"/>
<feBlend mode="normal" in="SourceGraphic" in2="effect1_dropShadow_55_5561" result="shape"/>
</filter>
<filter id="filter26_d_55_5561" x="150.945" y="45.0181" width="121.723" height="123.263" filterUnits="userSpaceOnUse" color-interpolation-filters="sRGB">
<feFlood flood-opacity="0" result="BackgroundImageFix"/>
<feColorMatrix in="SourceAlpha" type="matrix" values="0 0 0 0 0 0 0 0 0 0 0 0 0 0 0 0 0 0 127 0" result="hardAlpha"/>
<feOffset/>
<feGaussianBlur stdDeviation="27.4547"/>
<feComposite in2="hardAlpha" operator="out"/>
<feColorMatrix type="matrix" values="0 0 0 0 0.992157 0 0 0 0 0.498039 0 0 0 0 0.360784 0 0 0 1 0"/>
<feBlend mode="normal" in2="BackgroundImageFix" result="effect1_dropShadow_55_5561"/>
<feBlend mode="normal" in="SourceGraphic" in2="effect1_dropShadow_55_5561" result="shape"/>
</filter>
<filter id="filter27_d_55_5561" x="159.791" y="20.2453" width="119.343" height="129.488" filterUnits="userSpaceOnUse" color-interpolation-filters="sRGB">
<feFlood flood-opacity="0" result="BackgroundImageFix"/>
<feColorMatrix in="SourceAlpha" type="matrix" values="0 0 0 0 0 0 0 0 0 0 0 0 0 0 0 0 0 0 127 0" result="hardAlpha"/>
<feOffset/>
<feGaussianBlur stdDeviation="27.4547"/>
<feComposite in2="hardAlpha" operator="out"/>
<feColorMatrix type="matrix" values="0 0 0 0 0.992157 0 0 0 0 0.498039 0 0 0 0 0.360784 0 0 0 1 0"/>
<feBlend mode="normal" in2="BackgroundImageFix" result="effect1_dropShadow_55_5561"/>
<feBlend mode="normal" in="SourceGraphic" in2="effect1_dropShadow_55_5561" result="shape"/>
</filter>
<filter id="filter28_d_55_5561" x="165.141" y="14.5774" width="116.721" height="134.544" filterUnits="userSpaceOnUse" color-interpolation-filters="sRGB">
<feFlood flood-opacity="0" result="BackgroundImageFix"/>
<feColorMatrix in="SourceAlpha" type="matrix" values="0 0 0 0 0 0 0 0 0 0 0 0 0 0 0 0 0 0 127 0" result="hardAlpha"/>
<feOffset/>
<feGaussianBlur stdDeviation="27.4547"/>
<feComposite in2="hardAlpha" operator="out"/>
<feColorMatrix type="matrix" values="0 0 0 0 0.992157 0 0 0 0 0.498039 0 0 0 0 0.360784 0 0 0 1 0"/>
<feBlend mode="normal" in2="BackgroundImageFix" result="effect1_dropShadow_55_5561"/>
<feBlend mode="normal" in="SourceGraphic" in2="effect1_dropShadow_55_5561" result="shape"/>
</filter>
<filter id="filter29_d_55_5561" x="165.035" y="31.412" width="114.264" height="131.945" filterUnits="userSpaceOnUse" color-interpolation-filters="sRGB">
<feFlood flood-opacity="0" result="BackgroundImageFix"/>
<feColorMatrix in="SourceAlpha" type="matrix" values="0 0 0 0 0 0 0 0 0 0 0 0 0 0 0 0 0 0 127 0" result="hardAlpha"/>
<feOffset/>
<feGaussianBlur stdDeviation="27.4547"/>
<feComposite in2="hardAlpha" operator="out"/>
<feColorMatrix type="matrix" values="0 0 0 0 0.992157 0 0 0 0 0.498039 0 0 0 0 0.360784 0 0 0 1 0"/>
<feBlend mode="normal" in2="BackgroundImageFix" result="effect1_dropShadow_55_5561"/>
<feBlend mode="normal" in="SourceGraphic" in2="effect1_dropShadow_55_5561" result="shape"/>
</filter>
</defs>
</svg>
