<svg width="410" height="410" viewBox="0 0 410 410" fill="none" xmlns="http://www.w3.org/2000/svg">
<path d="M205 178.609C205 178.609 93.5146 135.101 93.5146 35.4968H316.485C316.485 129.826 205 178.609 205 178.609Z" stroke="white" stroke-width="2"/>
<path d="M205 178.609L205 366.503" stroke="white" stroke-width="2"/>
<path d="M152 374.503C193.654 365.011 216.602 365.083 258 374.503" stroke="white" stroke-width="2"/>
<mask id="mask0_1_104" style="mask-type:alpha" maskUnits="userSpaceOnUse" x="97" y="35" width="216" height="140">
<path d="M205 174.607C205 174.607 97.5034 132.315 97.5034 35.4968H312.497C312.497 127.188 205 174.607 205 174.607Z" fill="white"/>
</mask>
<g mask="url(#mask0_1_104)">
<rect x="95.5149" y="68.6068" width="219" height="20" fill="#AEC90D"/>
<rect x="95.5149" y="90.6068" width="219" height="20" fill="#E4F3FC"/>
<rect x="95.5149" y="112.607" width="219" height="20" fill="#E9DD00"/>
<rect x="95.5149" y="134.607" width="219" height="20" fill="#F2F2F2"/>
<rect x="95.5149" y="154.607" width="219" height="20" fill="#F2F2F2"/>
</g>
</svg>
